<?xml version="1.0" standalone="no"?>
<!DOCTYPE svg PUBLIC "-//W3C//DTD SVG 20010904//EN"
 "http://www.w3.org/TR/2001/REC-SVG-20010904/DTD/svg10.dtd">
<svg version="1.0" xmlns="http://www.w3.org/2000/svg"
 width="1080.000000pt" height="1080.000000pt" viewBox="0 0 1080.000000 1080.000000"
 preserveAspectRatio="xMidYMid meet">
<metadata>
Created by potrace 1.14, written by Peter Selinger 2001-2017
</metadata>
<g transform="translate(0.000000,1080.000000) scale(0.100000,-0.100000)"
fill="#000000" stroke="none">
<path d="M1622 8735 c2 -2 19 -6 40 -9 47 -7 136 -41 196 -74 66 -36 181 -155
219 -227 71 -135 65 89 65 -2705 0 -2233 -3 -2826 -16 -2895 -2 -11 -7 -47
-10 -80 -16 -132 -25 -189 -51 -300 -27 -113 -50 -172 -94 -233 -56 -76 -170
-128 -293 -134 -16 0 -28 -4 -28 -7 0 -8 155 -5 248 4 106 10 146 16 264 40
475 97 997 517 1202 967 39 86 92 237 101 287 3 19 8 37 10 40 2 4 6 27 9 51
4 25 9 56 11 70 2 14 8 45 11 70 4 25 8 1076 9 2335 1 1260 5 2306 9 2325 29
133 70 206 172 307 77 75 158 122 254 148 71 19 119 19 188 -1 208 -59 369
-231 412 -439 10 -47 13 -576 14 -2375 0 -1273 4 -2319 7 -2325 4 -5 10 -30
13 -55 28 -210 111 -432 233 -620 92 -141 174 -233 323 -363 58 -50 107 -94
110 -97 13 -16 146 -105 230 -155 233 -137 521 -209 877 -218 85 -2 83 5 -7
22 -76 15 -150 48 -201 90 -58 49 -121 196 -143 336 -3 22 -8 51 -10 65 -22
129 -33 220 -43 353 -3 45 -7 1360 -9 2922 -1 1562 -3 2849 -3 2861 l-1 21
-2160 0 c-1189 0 -2160 -1 -2158 -2z"/>
<path d="M6791 8726 c3 -4 26 -9 50 -12 430 -54 852 -267 1185 -599 303 -301
492 -639 641 -1145 13 -47 27 -96 29 -110 3 -14 11 -50 19 -80 12 -47 20 -88
41 -205 3 -18 26 -200 39 -310 41 -348 52 -1162 20 -1482 -2 -21 -6 -76 -10
-123 -5 -74 -24 -244 -40 -375 -3 -22 -15 -87 -26 -145 -12 -58 -23 -116 -25
-130 -9 -45 -35 -143 -70 -262 -80 -270 -186 -504 -316 -698 -319 -473 -808
-818 -1320 -929 -53 -11 -118 -23 -145 -27 -78 -9 -64 -17 17 -10 621 57 1212
256 1730 584 94 59 307 207 320 221 3 4 37 31 75 62 459 366 844 903 1038
1444 34 95 92 291 102 345 3 14 7 34 9 45 47 232 60 366 60 605 1 168 -7 325
-18 390 -3 14 -7 43 -10 65 -29 219 -110 506 -207 734 -110 256 -268 515 -468
766 -113 142 -367 399 -501 507 -471 378 -977 631 -1534 768 -89 21 -178 41
-198 44 -21 3 -57 10 -80 15 -24 6 -68 13 -98 16 -30 3 -62 8 -70 10 -8 2 -46
6 -85 10 -38 3 -90 8 -115 11 -24 3 -42 3 -39 0z"/>
<path d="M1085 3484 c-120 -21 -200 -55 -298 -127 -117 -86 -194 -185 -242
-312 -33 -86 -36 -104 -41 -220 -9 -257 118 -490 334 -612 180 -101 390 -126
567 -65 118 41 187 84 277 174 129 129 197 301 196 495 -1 197 -103 408 -256
528 -159 125 -347 174 -537 139z"/>
</g>
</svg>
