<?xml version="1.0" standalone="no"?>
<!DOCTYPE svg PUBLIC "-//W3C//DTD SVG 20010904//EN"
 "http://www.w3.org/TR/2001/REC-SVG-20010904/DTD/svg10.dtd">
<svg version="1.0" xmlns="http://www.w3.org/2000/svg"
 width="225.000000pt" height="225.000000pt" viewBox="0 0 225.000000 225.000000"
 preserveAspectRatio="xMidYMid meet">
<metadata>
Created by potrace 1.14, written by Peter Selinger 2001-2017
</metadata>
<g transform="translate(0.000000,225.000000) scale(0.100000,-0.100000)"
fill="#000000" stroke="none">
<path d="M90 1945 c0 -135 3 -245 8 -244 4 0 225 110 492 244 l485 244 -492 0
-493 1 0 -245z"/>
<path d="M1530 2104 c-91 -47 -277 -142 -415 -212 l-250 -126 220 -17 c514
-40 916 -70 1003 -76 l92 -6 0 261 0 262 -242 0 -243 -1 -165 -85z"/>
<path d="M275 1475 l-180 -94 -3 -336 -2 -335 217 0 218 0 81 128 c45 70 159
248 254 396 94 147 174 274 176 280 3 8 -10 13 -38 14 -47 3 -222 17 -388 32
-58 5 -116 9 -130 9 -14 0 -106 -42 -205 -94z"/>
<path d="M1355 1413 c-27 -43 -104 -161 -170 -263 -133 -202 -267 -408 -279
-427 -6 -10 124 -13 633 -13 l641 0 0 359 0 360 -42 6 c-24 3 -171 14 -328 25
-157 11 -312 22 -345 25 l-60 6 -50 -78z"/>
<path d="M107 554 c-4 -4 -7 -36 -7 -71 0 -61 1 -63 25 -63 20 0 25 5 25 25 0
14 4 25 9 25 5 0 18 -11 29 -25 12 -16 30 -25 47 -25 l27 0 -33 41 -33 42 27
19 c15 11 27 24 27 29 0 17 -31 9 -65 -17 l-33 -25 -4 23 c-3 22 -27 35 -41
22z"/>
<path d="M392 544 c-16 -11 -22 -25 -22 -53 0 -48 24 -71 74 -71 60 0 76 14
76 65 0 51 -24 75 -75 75 -17 0 -41 -7 -53 -16z m86 -49 c3 -19 -2 -33 -13
-41 -28 -20 -45 -6 -45 38 0 37 2 39 28 36 22 -2 28 -9 30 -33z"/>
<path d="M650 490 l0 -70 65 0 c51 0 65 3 65 15 0 11 -12 15 -45 15 l-45 0 0
55 c0 48 -2 55 -20 55 -18 0 -20 -7 -20 -70z"/>
<path d="M952 548 c-11 -15 -62 -115 -62 -123 0 -9 39 -5 45 5 3 6 22 10 41
10 19 0 34 -4 34 -10 0 -5 11 -10 25 -10 14 0 25 2 25 5 0 2 -14 34 -32 70
-32 65 -54 80 -76 53z m38 -70 c0 -5 -7 -8 -15 -8 -15 0 -20 21 -8 33 7 7 23
-11 23 -25z"/>
<path d="M1150 545 c0 -9 9 -15 25 -15 24 0 25 -3 25 -55 0 -48 3 -55 19 -55
17 0 20 8 23 53 3 49 5 52 31 55 16 2 27 8 24 15 -2 7 -32 13 -75 15 -60 2
-72 0 -72 -13z"/>
<path d="M1417 553 c-2 -4 -5 -36 -5 -70 -2 -61 -1 -63 23 -63 20 0 25 5 25
25 0 21 5 25 30 25 25 0 30 -4 30 -25 0 -20 5 -25 25 -25 24 0 25 1 22 68 -3
58 -6 67 -23 67 -13 0 -20 -8 -22 -27 -3 -23 -8 -28 -32 -28 -24 0 -29 5 -32
27 -3 26 -31 44 -41 26z"/>
<path d="M1697 553 c-10 -16 -1 -101 12 -117 15 -18 81 -22 112 -6 15 9 19 22
19 70 0 53 -2 60 -20 60 -17 0 -20 -7 -20 -50 0 -37 -4 -52 -18 -59 -28 -15
-40 0 -44 54 -2 37 -7 51 -20 53 -9 2 -18 -1 -21 -5z"/>
<path d="M1977 553 c-4 -3 -7 -35 -7 -70 0 -56 2 -63 20 -63 15 0 20 7 21 28
3 78 3 77 33 77 35 0 46 -20 17 -30 -25 -8 -26 -18 -5 -50 10 -16 26 -25 41
-25 24 0 25 1 10 24 -14 21 -14 25 0 39 21 21 10 63 -19 71 -31 8 -103 8 -111
-1z"/>
<path d="M95 319 c4 -11 31 -72 62 -135 l55 -114 45 0 44 0 60 126 c32 69 59
130 59 135 0 6 -19 9 -42 7 l-42 -3 -36 -82 c-20 -46 -39 -85 -41 -88 -3 -2
-22 36 -43 85 l-38 90 -45 0 c-40 0 -44 -2 -38 -21z"/>
<path d="M489 213 c-35 -71 -65 -131 -67 -135 -2 -5 17 -8 41 -8 37 0 47 4 52
20 6 18 15 20 80 20 64 0 73 -2 78 -20 4 -16 14 -20 51 -20 l46 0 -67 135 -68
135 -41 0 -42 0 -63 -127z m125 5 c22 -44 21 -48 -19 -48 -19 0 -35 5 -35 10
0 13 29 70 35 70 2 0 11 -14 19 -32z"/>
<path d="M818 334 c-5 -4 -8 -65 -8 -136 l0 -128 45 0 45 0 0 105 0 105 44 0
c57 0 76 -8 76 -31 0 -20 -28 -39 -59 -39 -35 0 -26 -48 17 -97 35 -39 43 -43
85 -43 26 0 47 3 47 7 0 4 -16 24 -36 44 l-37 38 31 26 c38 32 47 58 33 94
-19 45 -46 55 -166 59 -60 2 -113 0 -117 -4z"/>
<path d="M1154 325 c-12 -31 4 -45 51 -45 l45 0 0 -105 0 -105 45 0 45 0 0
105 0 105 50 0 c49 0 50 1 50 30 l0 30 -140 0 c-116 0 -142 -3 -146 -15z"/>
<path d="M1500 205 l0 -135 40 0 40 0 0 50 0 50 59 0 60 0 3 -47 3 -48 43 -3
42 -3 0 136 0 136 -42 -3 -43 -3 -3 -52 -3 -53 -60 0 -59 0 0 55 0 55 -40 0
-40 0 0 -135z"/>
<path d="M1905 211 c-36 -72 -65 -133 -65 -136 0 -3 20 -5 44 -5 36 0 46 4 51
20 6 17 15 20 75 20 59 0 71 -3 80 -20 8 -15 21 -20 50 -20 26 0 40 5 40 13
-1 6 -29 66 -63 132 l-62 120 -42 3 -42 3 -66 -130z m130 3 c8 -20 15 -38 15
-40 0 -2 -18 -4 -40 -4 l-40 0 20 40 c11 22 23 40 25 40 3 0 12 -16 20 -36z"/>
</g>
</svg>
